<svg width="13" height="16" viewBox="0 0 13 16" fill="none" xmlns="http://www.w3.org/2000/svg">
<path d="M12.5977 9.86667L10.8272 8.0948V8.09647C10.7741 8.03995 10.6993 8.00505 10.6163 8.00505C10.5365 8.00505 10.4651 8.03663 10.412 8.08982V8.08816L9.97848 8.52198L6.6517 11.8513L3.74181 8.93918V5.70794L8.51689 0.929211H10.206L4.72174 6.34787C4.69184 6.52406 4.67689 6.70357 4.67689 6.88641C4.67689 7.1374 4.70513 7.38174 4.75828 7.6161L11.5264 0.929211C11.7855 0.668251 11.9898 0.35244 12.1194 6.10352e-05H3.25516C1.86665 6.10352e-05 0.687411 1.16358 0.669141 2.46838V10.1925L0.66748 10.1941L6.32783 15.8588C6.41087 15.9452 6.52713 16.0001 6.65668 16.0001C6.78623 16.0001 6.90416 15.9452 6.98554 15.8588L12.1476 10.6928L12.5961 10.244C12.6409 10.1925 12.6675 10.1276 12.6675 10.0545C12.6675 9.98302 12.6409 9.91654 12.5977 9.86667ZM3.74181 0.929211H7.20312L3.74181 4.39316V0.929211ZM1.59592 4.576C1.59758 4.57766 1.59925 4.57933 1.60257 4.58099V2.58971C1.60257 1.82678 2.11246 1.18518 2.81336 0.990711V8.0117L1.59592 6.79333V4.576ZM1.59592 9.81182V8.10644L5.99399 12.5079L5.14194 13.3605L1.59592 9.81182ZM6.65668 14.8748L5.80132 14.0188L10.6362 9.1802L11.4916 10.0362L6.65668 14.8748Z" fill="#ccc1b4"/>
</svg>
