<svg width="227" height="44" viewBox="0 0 227 44" fill="none" xmlns="http://www.w3.org/2000/svg">
<path d="M13.3869 33.2232L11.4734 31.3099L22.2812 20.5026L24.1945 22.4158L13.3869 33.2232ZM2.07803 21.9132V18.1062L11.9095 27.9377L10.0053 29.8416L2.07803 21.9132ZM2.07803 10.2198C2.08204 10.2241 2.08658 10.2286 2.09085 10.2307V5.7825C2.09085 4.08022 3.23202 2.64502 4.80023 2.21317V17.8928L2.0783 15.1712V10.2198H2.07803ZM6.87239 2.07323H14.6119L6.87239 9.81251V2.07323ZM26.6691 22.0369L22.7107 18.0808V18.0846C22.5937 17.9588 22.4268 17.8789 22.2401 17.8789C22.0623 17.8789 21.9007 17.9513 21.7837 18.0672V18.0651L20.814 19.0359L13.3762 26.4718L6.87212 19.9682V12.7486L17.5451 2.07323H21.3219L9.06045 14.1793C8.99716 14.5705 8.9603 14.9733 8.9603 15.3835C8.9603 15.9433 9.0244 16.4894 9.14431 17.0129L24.273 2.0735H24.2741C24.8536 1.49156 25.3084 0.785706 25.599 0H5.78463C2.68213 0 0.0427295 2.60015 0.00160151 5.5133V22.7684L0 22.771L12.6501 35.4211C12.836 35.6161 13.0971 35.7368 13.3869 35.7368C13.6764 35.7368 13.9379 35.6142 14.1237 35.4206H14.1261L25.6612 23.8826H25.6618L26.6654 22.8816C26.7639 22.7673 26.8246 22.6188 26.8246 22.458C26.8246 22.2975 26.765 22.1506 26.6691 22.0369Z" fill="#CCC1B4"/>
<path d="M45.7233 21.3483C45.7233 23.8558 47.0958 25.1102 49.8457 25.1102C51.0283 25.1102 52.413 24.8383 53.9973 24.297L54.4192 26.2228C52.714 26.8848 51.0887 27.2165 49.5442 27.2165C49.2229 27.2165 48.7358 27.1864 48.0852 27.1257C47.4328 27.0646 46.7411 26.84 46.0093 26.4482C45.2755 26.0575 44.6866 25.4358 44.2339 24.5841C43.7812 23.7303 43.5569 22.6724 43.5569 21.4087V11.7516C43.5569 10.2264 43.7719 9.07241 44.2032 8.28964C44.6356 7.50874 45.2912 6.84561 46.176 6.30454C47.0768 5.80192 48.1499 5.55249 49.3939 5.55249C50.9388 5.55249 52.3623 5.88232 53.6669 6.54597L53.0348 8.25893C51.9518 7.85806 50.988 7.6591 50.1457 7.6591C49.3044 7.6591 48.5985 7.74403 48.0249 7.91335C47.4526 8.08453 46.9281 8.47552 46.4455 9.08629C45.9645 9.69948 45.7241 10.4964 45.7241 11.4792V21.3483H45.7233Z" fill="#CCC1B4"/>
<path d="M70.4326 21.1067V11.8099C70.4326 10.4257 70.0753 9.3721 69.3627 8.65102C68.6502 7.92727 67.6212 7.56727 66.2795 7.56727C63.5108 7.56727 62.1258 8.98191 62.1258 11.8099V21.167C62.1258 22.4513 62.5066 23.4293 63.2691 24.1031C64.0316 24.774 65.0341 25.11 66.2792 25.11C67.521 25.11 68.5241 24.774 69.2858 24.1031C70.0496 23.4296 70.4326 22.431 70.4326 21.1067ZM72.5974 11.6892V21.3484C72.5974 23.3738 71.9797 24.864 70.7472 25.8164C69.5136 26.7709 68.0327 27.2457 66.3088 27.2457C64.5828 27.2457 63.0942 26.7711 61.8411 25.8164C60.5867 24.864 59.9607 23.3738 59.9607 21.3484V11.66C59.9607 9.59403 60.525 8.02876 61.6595 6.96691C62.7919 5.90399 64.3531 5.37146 66.3385 5.37146C68.3249 5.37146 69.8629 5.93337 70.9574 7.05691C72.0513 8.17938 72.5974 9.72302 72.5974 11.6892Z" fill="#CCC1B4"/>
<path d="M94.959 26.915H92.764L82.3228 10.0651V26.915H80.155V5.85266H82.3228L92.764 22.6724V5.85266H94.959V26.915Z" fill="#CCC1B4"/>
<path d="M112.989 21.199V12.3509C112.989 10.8462 112.554 9.72882 111.68 8.99706C110.809 8.26477 109.739 7.89969 108.475 7.89969H104.685V24.959H108.296C110.522 24.959 111.948 24.3669 112.569 23.183C112.848 22.6628 112.989 21.9997 112.989 21.199ZM108.777 26.915H102.517V5.82166H108.175C110.442 5.82166 112.173 6.44525 113.366 7.68737C114.56 8.93163 115.157 10.5877 115.157 12.6521V20.8964C115.157 24.9099 113.029 26.915 108.777 26.915Z" fill="#CCC1B4"/>
<path d="M133.185 21.1067V11.8099C133.185 10.4257 132.829 9.3721 132.117 8.65102C131.405 7.92727 130.377 7.56727 129.032 7.56727C126.265 7.56727 124.881 8.98191 124.881 11.8099V21.167C124.881 22.4513 125.262 23.4293 126.024 24.1031C126.786 24.774 127.791 25.11 129.032 25.11C130.277 25.11 131.28 24.774 132.043 24.1031C132.804 23.4296 133.185 22.431 133.185 21.1067ZM135.352 11.6892V21.3484C135.352 23.3738 134.735 24.864 133.501 25.8164C132.268 26.7709 130.788 27.2457 129.064 27.2457C127.338 27.2457 125.848 26.7711 124.595 25.8164C123.34 24.864 122.714 23.3738 122.714 21.3484V11.66C122.714 9.59403 123.281 8.02876 124.414 6.96691C125.549 5.90399 127.108 5.37146 129.094 5.37146C131.079 5.37146 132.619 5.93337 133.711 7.05691C134.806 8.17938 135.352 9.72302 135.352 11.6892Z" fill="#CCC1B4"/>
<path d="M153.773 26.2229C152.069 26.8849 150.445 27.2161 148.899 27.2161C148.578 27.2161 148.092 27.1864 147.44 27.1258C146.788 27.0647 146.095 26.8401 145.364 26.4483C144.632 26.057 144.04 25.4358 143.589 24.5831C143.136 23.7304 142.911 22.6725 142.911 21.4088V11.7517C142.911 10.2265 143.126 9.07248 143.558 8.29025C143.99 7.50882 144.646 6.84516 145.528 6.30462C146.431 5.802 147.505 5.5531 148.749 5.5531C150.293 5.5531 151.717 5.8824 153.022 6.54499L152.539 7.68749C151.396 7.26739 150.313 7.05695 149.289 7.05695C146.162 7.05695 144.595 8.53168 144.595 11.4785V21.3476C144.595 23.9777 145.87 25.4105 148.417 25.6514C148.619 25.6919 148.829 25.712 149.049 25.712C150.254 25.712 151.705 25.4105 153.413 24.809L153.773 26.2229Z" fill="#CCC1B4"/>
<path d="M170.328 21.2877V11.3882C170.328 9.92492 169.901 8.82168 169.049 8.07817C168.198 7.33813 167.069 6.96664 165.664 6.96664C164.261 6.96664 163.136 7.3384 162.293 8.07817C161.453 8.82141 161.03 9.92492 161.03 11.3882V21.3187C161.03 22.7422 161.468 23.8214 162.342 24.5542C163.212 25.2854 164.327 25.6511 165.682 25.6511C167.034 25.6511 168.148 25.2959 169.019 24.5828C169.892 23.8713 170.328 22.7742 170.328 21.2877ZM171.982 11.6892V21.3484C171.982 23.3738 171.367 24.864 170.133 25.8164C168.899 26.7709 167.421 27.2457 165.697 27.2457C163.969 27.2457 162.481 26.7711 161.228 25.8164C159.972 24.864 159.346 23.3738 159.346 21.3484V11.66C159.346 9.59403 159.912 8.02876 161.047 6.96691C162.18 5.90399 163.738 5.37146 165.724 5.37146C167.711 5.37146 169.251 5.93337 170.343 7.05691C171.438 8.17938 171.982 9.72302 171.982 11.6892Z" fill="#CCC1B4"/>
<path d="M194.347 26.915H192.661L181.228 8.95275V26.915H179.541V5.85266H181.228L192.661 23.8157V5.85266H194.347V26.915Z" fill="#CCC1B4"/>
<path d="M205.781 26.915H204.094V7.35784H198.981V5.85266H211.076V7.35784H205.781V26.915Z" fill="#CCC1B4"/>
<path d="M222.261 17.888L219.252 8.4707L216.334 17.888H222.261ZM226.926 26.915H225.118L222.713 19.544H215.853L213.506 26.915H211.73L218.471 5.85266H220.065L226.926 26.915Z" fill="#CCC1B4"/>
<path d="M55.4451 43.735C55.1271 43.5644 54.8808 43.324 54.707 43.0147C54.5331 42.7055 54.446 42.3476 54.446 41.9411V39.7138C54.446 39.3076 54.5331 38.9497 54.707 38.6402C54.8808 38.3307 55.1268 38.0909 55.4451 37.9199C55.7632 37.7493 56.1312 37.6638 56.5497 37.6638C56.9682 37.6638 57.3376 37.7493 57.6588 37.9199C57.9796 38.0911 58.2274 38.3309 58.401 38.6402C58.5746 38.9495 58.6619 39.3073 58.6619 39.7138V41.9411C58.6619 42.3474 58.5749 42.7052 58.401 43.0147C58.2272 43.3243 57.9796 43.5646 57.6588 43.735C57.3376 43.9062 56.9679 43.9911 56.5497 43.9911C56.1315 43.9911 55.7632 43.9059 55.4451 43.735ZM57.6279 43.0454C57.8989 42.7746 58.0343 42.4154 58.0343 41.9678V39.705C58.0343 39.2574 57.8987 38.8966 57.6279 38.6226C57.3571 38.3486 56.9976 38.2116 56.5497 38.2116C56.108 38.2116 55.7515 38.3488 55.4804 38.6226C55.2093 38.8963 55.0739 39.2574 55.0739 39.705V41.9678C55.0739 42.4154 55.2096 42.7746 55.4804 43.0454C55.7515 43.3168 56.108 43.4522 56.5497 43.4522C56.9973 43.4522 57.3568 43.3165 57.6279 43.0454Z" fill="#CCC1B4"/>
<path d="M65.3249 41.6844C65.3249 42.1681 65.2838 42.5419 65.2013 42.8069C65.0891 43.172 64.895 43.4609 64.618 43.6727C64.3411 43.885 63.9963 43.9908 63.5839 43.9908C63.3484 43.9908 63.1331 43.9438 62.939 43.8495C62.7443 43.7555 62.5822 43.6201 62.4529 43.4433C62.447 43.4313 62.4382 43.427 62.4262 43.4297C62.4145 43.4329 62.4086 43.4401 62.4086 43.4521V43.8319C62.4086 43.8909 62.3792 43.9206 62.3205 43.9206H61.8697C61.8106 43.9206 61.7812 43.8909 61.7812 43.8319V37.8229C61.7812 37.7639 61.8106 37.7343 61.8697 37.7343H62.3205C62.3792 37.7343 62.4086 37.7639 62.4086 37.8229V39.9084C62.4086 39.9204 62.4134 39.9276 62.4222 39.9303C62.431 39.9335 62.4409 39.9293 62.4529 39.9172C62.5822 39.7461 62.7446 39.6136 62.939 39.5198C63.1334 39.4253 63.3484 39.378 63.5839 39.378C64.0022 39.378 64.3528 39.4859 64.6356 39.7009C64.9185 39.9159 65.1126 40.2121 65.2189 40.5892C65.2897 40.8541 65.3249 41.2192 65.3249 41.6844ZM64.6621 42.3344C64.6856 42.1779 64.6973 41.9616 64.6973 41.6844C64.6973 41.396 64.681 41.1706 64.6487 41.0085C64.6164 40.8469 64.5649 40.7008 64.4944 40.5713C64.4177 40.3766 64.2938 40.2206 64.1229 40.1028C63.9517 39.9851 63.749 39.926 63.5132 39.926C63.2894 39.926 63.0963 39.9867 62.9342 40.1071C62.7723 40.2281 62.6562 40.3889 62.5851 40.5892C62.5261 40.7128 62.4834 40.8541 62.4572 41.0133C62.431 41.1724 62.4174 41.3962 62.4174 41.6847C62.4174 41.968 62.431 42.187 62.4572 42.3435C62.4836 42.4995 62.5234 42.6392 62.5763 42.7628C62.653 42.9693 62.771 43.1343 62.9299 43.258C63.0888 43.3816 63.2862 43.4436 63.522 43.4436C63.7693 43.4436 63.9832 43.3816 64.1624 43.258C64.3424 43.1343 64.4677 42.9663 64.5379 42.754C64.5972 42.6301 64.6386 42.4904 64.6621 42.3344Z" fill="#CCC1B4"/>
<path d="M69.3581 39.7847C69.6468 40.0555 69.7913 40.4152 69.7913 40.8628V43.8318C69.7913 43.8908 69.7617 43.9205 69.7026 43.9205H69.2518C69.1928 43.9205 69.1637 43.8908 69.1637 43.8318V43.4699C69.1637 43.4579 69.1589 43.4491 69.1501 43.4432C69.1415 43.4376 69.1311 43.44 69.1194 43.452C68.9719 43.6288 68.7805 43.7629 68.5452 43.8542C68.3094 43.9456 68.0471 43.991 67.7587 43.991C67.3404 43.991 66.9898 43.8852 66.707 43.6729C66.4241 43.4611 66.2826 43.1372 66.2826 42.701C66.2826 42.2593 66.4431 41.9097 66.7644 41.6536C67.0854 41.3975 67.5317 41.2693 68.1034 41.2693H69.1284C69.1519 41.2693 69.164 41.2578 69.164 41.2338V40.8983C69.164 40.5974 69.0801 40.3605 68.9121 40.1869C68.7441 40.0133 68.4835 39.926 68.1299 39.926C67.8468 39.926 67.6174 39.9802 67.4406 40.0891C67.2638 40.1981 67.1548 40.3501 67.1134 40.5445C67.0958 40.6035 67.0606 40.63 67.0077 40.6238L66.5304 40.5624C66.4655 40.5504 66.4391 40.5269 66.4508 40.4913C66.4981 40.1618 66.6746 39.8937 66.981 39.687C67.287 39.481 67.6703 39.3777 68.1299 39.3777C68.66 39.3777 69.0694 39.5134 69.3581 39.7847ZM68.7837 43.1914C69.0371 43.0178 69.164 42.7836 69.164 42.4887V41.7997C69.164 41.7762 69.1519 41.7642 69.1284 41.7642H68.2004C67.8115 41.7642 67.4993 41.8435 67.2635 42.0027C67.0277 42.1618 66.9102 42.383 66.9102 42.6655C66.9102 42.9248 66.9999 43.1203 67.1797 43.2533C67.3597 43.3858 67.5936 43.452 67.8823 43.452C68.23 43.452 68.5305 43.365 68.7837 43.1914Z" fill="#CCC1B4"/>
<path d="M74.0704 39.8023C74.35 40.0792 74.4899 40.4502 74.4899 40.9154V43.8318C74.4899 43.8908 74.4605 43.9204 74.4015 43.9204H73.9507C73.8917 43.9204 73.8626 43.8908 73.8626 43.8318V41.0396C73.8626 40.7157 73.7638 40.4502 73.5664 40.244C73.369 40.0378 73.1143 39.9348 72.8023 39.9348C72.4778 39.9348 72.2161 40.0349 72.0158 40.2352C71.8155 40.4355 71.7154 40.6978 71.7154 41.0217V43.8315C71.7154 43.8905 71.6857 43.9202 71.6267 43.9202H71.1759C71.1169 43.9202 71.0878 43.8905 71.0878 43.8315V39.5366C71.0878 39.4781 71.1169 39.4484 71.1759 39.4484H71.6267C71.6857 39.4484 71.7154 39.4781 71.7154 39.5366V39.9169C71.7154 39.9289 71.7196 39.9377 71.7285 39.9436C71.7373 39.9494 71.7447 39.9468 71.7506 39.9348C72.0099 39.5697 72.4076 39.3865 72.9439 39.3865C73.4147 39.3867 73.7902 39.5253 74.0704 39.8023Z" fill="#CCC1B4"/>
<path d="M76.3988 43.6598C76.0952 43.4387 75.8877 43.1398 75.7755 42.7627C75.6991 42.5034 75.6606 42.1383 75.6606 41.6667C75.6606 41.2426 75.6991 40.8831 75.7755 40.5891C75.8815 40.2235 76.0879 39.9302 76.394 39.7096C76.7003 39.4885 77.0659 39.3779 77.49 39.3779C77.92 39.3779 78.2928 39.4874 78.608 39.7051C78.9231 39.923 79.128 40.1944 79.2225 40.5183C79.2516 40.6241 79.2695 40.713 79.2754 40.7832V40.8009C79.2754 40.842 79.2487 40.8687 79.1958 40.8807L78.7541 40.9421H78.7364C78.6953 40.9421 78.6686 40.9154 78.6569 40.8628L78.6304 40.7304C78.5773 40.506 78.4475 40.3161 78.2413 40.1602C78.0354 40.0042 77.7849 39.9259 77.49 39.9259C77.1952 39.9259 76.9498 40.0042 76.7521 40.1602C76.5545 40.3161 76.4263 40.5236 76.3678 40.783C76.315 41.0073 76.2882 41.3045 76.2882 41.6755C76.2882 42.0646 76.315 42.3651 76.3678 42.5774C76.4266 42.8423 76.5548 43.053 76.7521 43.209C76.9495 43.365 77.1952 43.4432 77.49 43.4432C77.7785 43.4432 78.0279 43.3681 78.237 43.2178C78.4459 43.0674 78.577 42.8746 78.6304 42.6388V42.6033L78.639 42.5683C78.6448 42.5093 78.6801 42.4858 78.745 42.4972L79.1779 42.5683C79.2369 42.5798 79.2634 42.6121 79.2575 42.6652L79.2222 42.842C79.1336 43.1836 78.9306 43.4606 78.6125 43.6723C78.2944 43.8847 77.92 43.9904 77.49 43.9904C77.0659 43.9909 76.7019 43.8809 76.3988 43.6598Z" fill="#CCC1B4"/>
<path d="M80.9887 43.6638C80.6824 43.4464 80.4701 43.146 80.3523 42.7625C80.2695 42.4917 80.2284 42.1293 80.2284 41.6755C80.2284 41.2223 80.2695 40.8628 80.3523 40.5974C80.4642 40.2208 80.6733 39.923 80.9799 39.7048C81.286 39.4874 81.6572 39.3777 82.0933 39.3777C82.5115 39.3777 82.8726 39.4872 83.176 39.7048C83.4794 39.9228 83.6869 40.2176 83.7991 40.5891C83.8816 40.842 83.9227 41.2047 83.9227 41.6755C83.9227 42.1528 83.8816 42.5154 83.7991 42.7625C83.6869 43.146 83.4794 43.4464 83.176 43.6638C82.8726 43.8817 82.5089 43.991 82.0845 43.991C81.6604 43.991 81.295 43.882 80.9887 43.6638ZM82.8093 43.209C83.0093 43.053 83.145 42.8423 83.2158 42.5774C83.2687 42.3651 83.2951 42.0678 83.2951 41.6843C83.2951 41.2957 83.2716 40.9985 83.2246 40.7918C83.1536 40.5269 83.0168 40.3162 82.8136 40.1602C82.6101 40.0042 82.3641 39.926 82.0754 39.926C81.787 39.926 81.5423 40.0042 81.3421 40.1602C81.1418 40.3162 81.0061 40.5269 80.9358 40.7918C80.8883 40.9982 80.8648 41.2957 80.8648 41.6843C80.8648 42.0734 80.8883 42.3707 80.9358 42.5774C81.0005 42.8423 81.1345 43.053 81.3378 43.209C81.541 43.365 81.7897 43.4432 82.0845 43.4432C82.367 43.4432 82.6087 43.365 82.8093 43.209Z" fill="#CCC1B4"/>
<path d="M87.5725 43.6638C87.2661 43.4464 87.0538 43.146 86.936 42.7625C86.8533 42.4917 86.8121 42.1293 86.8121 41.6755C86.8121 41.2223 86.8533 40.8628 86.936 40.5974C87.0479 40.2208 87.2571 39.923 87.5637 39.7048C87.8697 39.4874 88.2409 39.3777 88.6771 39.3777C89.0953 39.3777 89.4563 39.4872 89.7597 39.7048C90.0631 39.9228 90.2706 40.2176 90.3828 40.5891C90.4653 40.842 90.5064 41.2047 90.5064 41.6755C90.5064 42.1528 90.4653 42.5154 90.3828 42.7625C90.2706 43.146 90.0631 43.4464 89.7597 43.6638C89.4563 43.8817 89.0926 43.991 88.6682 43.991C88.2439 43.991 87.8785 43.882 87.5725 43.6638ZM89.3928 43.209C89.5928 43.053 89.7285 42.8423 89.7993 42.5774C89.8521 42.3651 89.8786 42.0678 89.8786 41.6843C89.8786 41.2957 89.8551 40.9985 89.8081 40.7918C89.737 40.5269 89.6003 40.3162 89.3971 40.1602C89.1935 40.0042 88.9476 39.926 88.6589 39.926C88.3705 39.926 88.1258 40.0042 87.9255 40.1602C87.7252 40.3162 87.5896 40.5269 87.5193 40.7918C87.4718 40.9982 87.4483 41.2957 87.4483 41.6843C87.4483 42.0734 87.4718 42.3707 87.5193 42.5774C87.584 42.8423 87.718 43.053 87.9213 43.209C88.1245 43.365 88.3731 43.4432 88.668 43.4432C88.9508 43.4432 89.1922 43.365 89.3928 43.209Z" fill="#CCC1B4"/>
<path d="M92.8048 38.4989C92.687 38.6433 92.628 38.889 92.628 39.2365V39.4133C92.628 39.4368 92.6397 39.4488 92.6635 39.4488H93.653C93.712 39.4488 93.7416 39.4785 93.7416 39.5369V39.9349C93.7416 39.9939 93.712 40.023 93.653 40.023H92.6635C92.6397 40.023 92.628 40.035 92.628 40.0585V43.8319C92.628 43.8909 92.5986 43.9206 92.5398 43.9206H92.0978C92.0388 43.9206 92.0094 43.8909 92.0094 43.8319V40.0585C92.0094 40.035 91.9974 40.023 91.9739 40.023H91.3818C91.3228 40.023 91.2937 39.9939 91.2937 39.9349V39.5369C91.2937 39.4785 91.3228 39.4488 91.3818 39.4488H91.9739C91.9974 39.4488 92.0094 39.4368 92.0094 39.4133V39.2015C92.0094 38.8359 92.0506 38.5491 92.1331 38.3397C92.2156 38.1303 92.3585 37.9773 92.5617 37.8801C92.7652 37.7826 93.0491 37.734 93.4145 37.734H93.6706C93.7296 37.734 93.7592 37.7636 93.7592 37.8227V38.1936C93.7592 38.2526 93.7296 38.2823 93.6706 38.2823H93.4673C93.1434 38.2825 92.9228 38.3544 92.8048 38.4989ZM94.917 38.4943C94.8224 38.4003 94.7757 38.2825 94.7757 38.1413C94.7757 37.9936 94.8227 37.8747 94.917 37.7829C95.0115 37.6915 95.1293 37.6461 95.2706 37.6461C95.4118 37.6461 95.5299 37.6915 95.6239 37.7829C95.7182 37.8747 95.7652 37.9936 95.7652 38.1413C95.7652 38.2825 95.7179 38.4006 95.6239 38.4943C95.5296 38.5889 95.4118 38.6356 95.2706 38.6356C95.1293 38.6356 95.0112 38.5886 94.917 38.4943ZM94.9346 43.8231V39.5281C94.9346 39.4696 94.9637 39.44 95.023 39.44H95.4738C95.5326 39.44 95.5622 39.4696 95.5622 39.5281V43.8231C95.5622 43.8821 95.5326 43.9117 95.4738 43.9117H95.023C94.9637 43.9117 94.9346 43.8821 94.9346 43.8231Z" fill="#CCC1B4"/>
<path d="M97.589 43.6598C97.2853 43.4387 97.0778 43.1398 96.9662 42.7627C96.8895 42.5034 96.8511 42.1383 96.8511 41.6667C96.8511 41.2426 96.8895 40.8831 96.9662 40.5891C97.0719 40.2235 97.2781 39.9302 97.5847 39.7096C97.8908 39.4885 98.2561 39.3779 98.6805 39.3779C99.1104 39.3779 99.4833 39.4874 99.7987 39.7051C100.114 39.923 100.318 40.1944 100.413 40.5183C100.442 40.6241 100.46 40.713 100.466 40.7832V40.8009C100.466 40.842 100.439 40.8687 100.386 40.8807L99.9442 40.9421H99.9269C99.8855 40.9421 99.859 40.9154 99.8473 40.8628L99.8206 40.7304C99.7677 40.506 99.6379 40.3161 99.432 40.1602C99.2256 40.0042 98.975 39.9259 98.6807 39.9259C98.3864 39.9259 98.1402 40.0042 97.9428 40.1602C97.7452 40.3161 97.6173 40.5236 97.5585 40.783C97.5054 41.0073 97.4789 41.3045 97.4789 41.6755C97.4789 42.0646 97.5054 42.3651 97.5585 42.5774C97.6176 42.8423 97.7452 43.053 97.9428 43.209C98.1399 43.365 98.3862 43.4432 98.6807 43.4432C98.9694 43.4432 99.2183 43.3681 99.4275 43.2178C99.6366 43.0674 99.7677 42.8746 99.8208 42.6388V42.6033L99.8297 42.5683C99.8353 42.5093 99.8708 42.4858 99.9357 42.4972L100.369 42.5683C100.427 42.5798 100.454 42.6121 100.448 42.6652L100.413 42.842C100.325 43.1836 100.121 43.4606 99.8029 43.6723C99.4849 43.8847 99.1107 43.9904 98.6807 43.9904C98.2564 43.9909 97.8926 43.8809 97.589 43.6598Z" fill="#CCC1B4"/>
<path d="M101.565 38.4943C101.47 38.4003 101.423 38.2825 101.423 38.1413C101.423 37.9936 101.47 37.8747 101.565 37.7829C101.659 37.6915 101.777 37.6461 101.918 37.6461C102.06 37.6461 102.178 37.6915 102.272 37.7829C102.366 37.8747 102.413 37.9936 102.413 38.1413C102.413 38.2825 102.366 38.4006 102.272 38.4943C102.177 38.5889 102.06 38.6356 101.918 38.6356C101.777 38.6356 101.659 38.5886 101.565 38.4943ZM101.583 43.8231V39.5281C101.583 39.4696 101.612 39.44 101.671 39.44H102.122C102.181 39.44 102.21 39.4696 102.21 39.5281V43.8231C102.21 43.8821 102.181 43.9117 102.122 43.9117H101.671C101.612 43.9117 101.583 43.8821 101.583 43.8231Z" fill="#CCC1B4"/>
<path d="M106.419 39.7847C106.707 40.0555 106.852 40.4152 106.852 40.8628V43.8318C106.852 43.8908 106.822 43.9205 106.763 43.9205H106.312C106.253 43.9205 106.224 43.8908 106.224 43.8318V43.4699C106.224 43.4579 106.219 43.4491 106.211 43.4432C106.202 43.4376 106.192 43.44 106.18 43.452C106.032 43.6288 105.841 43.7629 105.605 43.8542C105.37 43.9456 105.108 43.991 104.819 43.991C104.401 43.991 104.05 43.8852 103.767 43.6729C103.484 43.4611 103.343 43.1372 103.343 42.701C103.343 42.2593 103.504 41.9097 103.825 41.6536C104.146 41.3975 104.592 41.2693 105.164 41.2693H106.189C106.212 41.2693 106.224 41.2578 106.224 41.2338V40.8983C106.224 40.5974 106.14 40.3605 105.972 40.1869C105.804 40.0133 105.544 39.926 105.19 39.926C104.907 39.926 104.678 39.9802 104.501 40.0891C104.324 40.1981 104.215 40.3501 104.174 40.5445C104.156 40.6035 104.121 40.63 104.068 40.6238L103.591 40.5624C103.526 40.5504 103.499 40.5269 103.511 40.4913C103.558 40.1618 103.735 39.8937 104.041 39.687C104.348 39.481 104.731 39.3777 105.19 39.3777C105.72 39.3777 106.13 39.5134 106.419 39.7847ZM105.844 43.1914C106.097 43.0178 106.224 42.7836 106.224 42.4887V41.7997C106.224 41.7762 106.212 41.7642 106.189 41.7642H105.261C104.872 41.7642 104.56 41.8435 104.324 42.0027C104.088 42.1618 103.971 42.383 103.971 42.6655C103.971 42.9248 104.06 43.1203 104.24 43.2533C104.42 43.3858 104.654 43.452 104.943 43.452C105.29 43.452 105.591 43.365 105.844 43.1914Z" fill="#CCC1B4"/>
<path d="M108.148 43.8319V37.8229C108.148 37.7639 108.177 37.7343 108.236 37.7343H108.687C108.746 37.7343 108.775 37.7639 108.775 37.8229V43.8319C108.775 43.8909 108.746 43.9206 108.687 43.9206H108.236C108.177 43.9206 108.148 43.8909 108.148 43.8319Z" fill="#CCC1B4"/>
<path d="M114.811 37.7343H115.262C115.321 37.7343 115.35 37.7639 115.35 37.8229V43.8319C115.35 43.8909 115.321 43.9206 115.262 43.9206H114.811C114.752 43.9206 114.723 43.8909 114.723 43.8319V43.4609C114.723 43.4489 114.718 43.4417 114.71 43.4385C114.701 43.4358 114.69 43.4401 114.679 43.4521C114.549 43.6233 114.388 43.7558 114.197 43.8495C114.005 43.9441 113.792 43.9908 113.556 43.9908C113.144 43.9908 112.797 43.885 112.518 43.6727C112.238 43.4609 112.045 43.172 111.939 42.8069C111.856 42.5419 111.815 42.1678 111.815 41.6844C111.815 41.1957 111.851 40.8306 111.921 40.5889C112.027 40.2118 112.221 39.9156 112.504 39.7006C112.787 39.4857 113.138 39.3778 113.556 39.3778C113.786 39.3778 113.998 39.4237 114.192 39.515C114.387 39.6064 114.549 39.7378 114.678 39.9084C114.69 39.9204 114.7 39.9247 114.709 39.9215C114.718 39.9188 114.722 39.9116 114.722 39.8996V37.8232C114.723 37.7639 114.752 37.7343 114.811 37.7343ZM114.679 42.3473C114.702 42.1881 114.714 41.9675 114.714 41.6844C114.714 41.4016 114.702 41.1794 114.679 41.0173C114.655 40.8557 114.614 40.7126 114.555 40.5889C114.484 40.3886 114.368 40.2278 114.206 40.1069C114.044 39.9864 113.851 39.9258 113.627 39.9258C113.391 39.9258 113.188 39.9848 113.017 40.1026C112.846 40.2204 112.722 40.3763 112.646 40.571C112.575 40.7003 112.523 40.8464 112.491 41.0082C112.459 41.1703 112.442 41.3957 112.442 41.6841C112.442 41.9611 112.454 42.1777 112.478 42.3342C112.501 42.4901 112.543 42.6298 112.602 42.7535C112.672 42.9658 112.797 43.1338 112.977 43.2574C113.157 43.3811 113.37 43.443 113.618 43.443C113.853 43.443 114.051 43.3811 114.21 43.2574C114.369 43.1338 114.487 42.969 114.563 42.7623C114.617 42.6453 114.655 42.5064 114.679 42.3473Z" fill="#CCC1B4"/>
<path d="M117.319 43.6638C117.013 43.4464 116.801 43.146 116.683 42.7625C116.6 42.4917 116.559 42.1293 116.559 41.6755C116.559 41.2223 116.6 40.8628 116.683 40.5974C116.795 40.2208 117.004 39.923 117.31 39.7048C117.616 39.4874 117.987 39.3777 118.424 39.3777C118.842 39.3777 119.203 39.4872 119.506 39.7048C119.81 39.9228 120.017 40.2176 120.129 40.5891C120.212 40.842 120.253 41.2047 120.253 41.6755C120.253 42.1528 120.212 42.5154 120.129 42.7625C120.017 43.146 119.81 43.4464 119.506 43.6638C119.203 43.8817 118.839 43.991 118.415 43.991C117.991 43.991 117.625 43.882 117.319 43.6638ZM119.14 43.209C119.34 43.053 119.476 42.8423 119.546 42.5774C119.599 42.3651 119.626 42.0678 119.626 41.6843C119.626 41.2957 119.602 40.9985 119.555 40.7918C119.484 40.5269 119.347 40.3162 119.144 40.1602C118.941 40.0042 118.694 39.926 118.406 39.926C118.117 39.926 117.873 40.0042 117.672 40.1602C117.472 40.3162 117.337 40.5269 117.266 40.7918C117.219 40.9982 117.195 41.2957 117.195 41.6843C117.195 42.0734 117.219 42.3707 117.266 42.5774C117.331 42.8423 117.465 43.053 117.668 43.209C117.872 43.365 118.12 43.4432 118.415 43.4432C118.698 43.4432 118.939 43.365 119.14 43.209Z" fill="#CCC1B4"/>
<path d="M122.04 43.8057C121.784 43.6994 121.586 43.5578 121.448 43.381C121.309 43.2042 121.24 43.0071 121.24 42.7889V42.6832C121.24 42.6242 121.269 42.5945 121.328 42.5945H121.753C121.812 42.5945 121.841 42.6242 121.841 42.6832V42.7537C121.841 42.9484 121.943 43.1177 122.146 43.2622C122.349 43.4061 122.604 43.4788 122.911 43.4788C123.217 43.4788 123.464 43.4093 123.653 43.2707C123.841 43.1324 123.936 42.9572 123.936 42.7449C123.936 42.5977 123.887 42.4773 123.79 42.383C123.693 42.2887 123.578 42.215 123.445 42.1619C123.313 42.1093 123.108 42.0414 122.831 41.9589C122.501 41.8644 122.23 41.7701 122.018 41.6755C121.806 41.5815 121.628 41.4501 121.483 41.2827C121.339 41.1147 121.267 40.9008 121.267 40.6417C121.267 40.2652 121.414 39.9642 121.708 39.7404C122.003 39.5166 122.392 39.4044 122.875 39.4044C123.199 39.4044 123.486 39.4576 123.737 39.5636C123.987 39.6699 124.18 39.8154 124.315 40.0013C124.451 40.1872 124.519 40.3947 124.519 40.6241V40.6508C124.519 40.7098 124.489 40.7395 124.43 40.7395H124.015C123.956 40.7395 123.926 40.7098 123.926 40.6508V40.6241C123.926 40.4238 123.831 40.2564 123.639 40.1207C123.448 39.985 123.19 39.9172 122.866 39.9172C122.566 39.9172 122.324 39.9778 122.141 40.0983C121.959 40.2192 121.867 40.3856 121.867 40.5974C121.867 40.7982 121.956 40.951 122.133 41.057C122.309 41.1633 122.583 41.2693 122.954 41.3751C123.296 41.4758 123.573 41.5698 123.785 41.6584C123.997 41.7466 124.18 41.875 124.333 42.0428C124.486 42.2102 124.563 42.4297 124.563 42.7011C124.563 43.084 124.412 43.3901 124.112 43.6201C123.811 43.8495 123.414 43.9643 122.919 43.9643C122.589 43.9643 122.296 43.9117 122.04 43.8057Z" fill="#CCC1B4"/>
<path d="M128.067 43.6598C127.763 43.4387 127.556 43.1398 127.444 42.7627C127.367 42.5034 127.329 42.1383 127.329 41.6667C127.329 41.2426 127.367 40.8831 127.444 40.5891C127.55 40.2235 127.756 39.9302 128.063 39.7096C128.369 39.4885 128.734 39.3779 129.159 39.3779C129.588 39.3779 129.961 39.4874 130.277 39.7051C130.592 39.923 130.796 40.1944 130.891 40.5183C130.92 40.6241 130.938 40.713 130.944 40.7832V40.8009C130.944 40.842 130.917 40.8687 130.864 40.8807L130.422 40.9421H130.405C130.364 40.9421 130.337 40.9154 130.325 40.8628L130.299 40.7304C130.246 40.506 130.116 40.3161 129.91 40.1602C129.704 40.0042 129.453 39.9259 129.159 39.9259C128.864 39.9259 128.618 40.0042 128.42 40.1602C128.223 40.3161 128.095 40.5236 128.036 40.783C127.983 41.0073 127.957 41.3045 127.957 41.6755C127.957 42.0646 127.983 42.3651 128.036 42.5774C128.095 42.8423 128.223 43.053 128.42 43.209C128.618 43.365 128.864 43.4432 129.159 43.4432C129.447 43.4432 129.696 43.3681 129.905 43.2178C130.114 43.0674 130.245 42.8746 130.299 42.6388V42.6033L130.308 42.5683C130.313 42.5093 130.348 42.4858 130.413 42.4972L130.846 42.5683C130.905 42.5798 130.932 42.6121 130.926 42.6652L130.891 42.842C130.802 43.1836 130.599 43.4606 130.281 43.6723C129.963 43.8847 129.588 43.9904 129.159 43.9904C128.734 43.9909 128.37 43.8809 128.067 43.6598Z" fill="#CCC1B4"/>
<path d="M132.657 43.6638C132.35 43.4464 132.138 43.146 132.02 42.7625C131.937 42.4917 131.896 42.1293 131.896 41.6755C131.896 41.2223 131.937 40.8628 132.02 40.5974C132.132 40.2208 132.341 39.923 132.648 39.7048C132.954 39.4874 133.325 39.3777 133.761 39.3777C134.179 39.3777 134.54 39.4872 134.844 39.7048C135.147 39.9228 135.355 40.2176 135.467 40.5891C135.549 40.842 135.591 41.2047 135.591 41.6755C135.591 42.1528 135.549 42.5154 135.467 42.7625C135.355 43.146 135.147 43.4464 134.844 43.6638C134.54 43.8817 134.177 43.991 133.752 43.991C133.328 43.991 132.963 43.882 132.657 43.6638ZM134.477 43.209C134.677 43.053 134.813 42.8423 134.884 42.5774C134.936 42.3651 134.963 42.0678 134.963 41.6843C134.963 41.2957 134.939 40.9985 134.892 40.7918C134.821 40.5269 134.685 40.3162 134.481 40.1602C134.278 40.0042 134.032 39.926 133.744 39.926C133.455 39.926 133.21 40.0042 133.01 40.1602C132.81 40.3162 132.674 40.5269 132.603 40.7918C132.556 40.9982 132.533 41.2957 132.533 41.6843C132.533 42.0734 132.556 42.3707 132.603 42.5774C132.668 42.8423 132.802 43.053 133.006 43.209C133.209 43.365 133.458 43.4432 133.752 43.4432C134.035 43.4432 134.277 43.365 134.477 43.209Z" fill="#CCC1B4"/>
<path d="M139.77 39.8023C140.049 40.0792 140.189 40.4502 140.189 40.9154V43.8318C140.189 43.8908 140.16 43.9204 140.101 43.9204H139.65C139.591 43.9204 139.562 43.8908 139.562 43.8318V41.0396C139.562 40.7157 139.463 40.4502 139.266 40.244C139.069 40.0378 138.814 39.9348 138.502 39.9348C138.178 39.9348 137.915 40.0349 137.715 40.2352C137.515 40.4355 137.415 40.6978 137.415 41.0217V43.8315C137.415 43.8905 137.385 43.9202 137.326 43.9202H136.876C136.817 43.9202 136.787 43.8905 136.787 43.8315V39.5366C136.787 39.4781 136.817 39.4484 136.876 39.4484H137.326C137.385 39.4484 137.415 39.4781 137.415 39.5366V39.9169C137.415 39.9289 137.419 39.9377 137.428 39.9436C137.437 39.9494 137.444 39.9468 137.45 39.9348C137.709 39.5697 138.107 39.3865 138.643 39.3865C139.114 39.3867 139.49 39.5253 139.77 39.8023Z" fill="#CCC1B4"/>
<path d="M144.36 37.7343H144.811C144.87 37.7343 144.9 37.7639 144.9 37.8229V43.8319C144.9 43.8909 144.87 43.9206 144.811 43.9206H144.36C144.301 43.9206 144.272 43.8909 144.272 43.8319V43.4609C144.272 43.4489 144.268 43.4417 144.259 43.4385C144.25 43.4358 144.24 43.4401 144.228 43.4521C144.098 43.6233 143.938 43.7558 143.746 43.8495C143.555 43.9441 143.341 43.9908 143.106 43.9908C142.693 43.9908 142.347 43.885 142.067 43.6727C141.787 43.4609 141.594 43.172 141.488 42.8069C141.406 42.5419 141.365 42.1678 141.365 41.6844C141.365 41.1957 141.4 40.8306 141.471 40.5889C141.577 40.2118 141.771 39.9156 142.054 39.7006C142.337 39.4857 142.687 39.3778 143.105 39.3778C143.335 39.3778 143.547 39.4237 143.742 39.515C143.936 39.6064 144.098 39.7378 144.228 39.9084C144.239 39.9204 144.25 39.9247 144.259 39.9215C144.267 39.9188 144.272 39.9116 144.272 39.8996V37.8232C144.272 37.7639 144.302 37.7343 144.36 37.7343ZM144.228 42.3473C144.251 42.1881 144.263 41.9675 144.263 41.6844C144.263 41.4016 144.251 41.1794 144.228 41.0173C144.204 40.8557 144.163 40.7126 144.104 40.5889C144.034 40.3886 143.917 40.2278 143.755 40.1069C143.593 39.9864 143.4 39.9258 143.176 39.9258C142.94 39.9258 142.737 39.9848 142.567 40.1026C142.395 40.2204 142.272 40.3763 142.195 40.571C142.125 40.7003 142.073 40.8464 142.041 41.0082C142.008 41.1703 141.992 41.3957 141.992 41.6841C141.992 41.9611 142.004 42.1777 142.027 42.3342C142.051 42.4901 142.092 42.6298 142.151 42.7535C142.222 42.9658 142.347 43.1338 142.526 43.2574C142.706 43.3811 142.92 43.443 143.167 43.443C143.403 43.443 143.6 43.3811 143.759 43.2574C143.918 43.1338 144.036 42.969 144.113 42.7623C144.166 42.6453 144.204 42.5064 144.228 42.3473Z" fill="#CCC1B4"/>
<path d="M146.869 43.6638C146.562 43.4464 146.35 43.146 146.232 42.7625C146.15 42.4917 146.109 42.1293 146.109 41.6755C146.109 41.2223 146.15 40.8628 146.232 40.5974C146.344 40.2208 146.553 39.923 146.86 39.7048C147.166 39.4874 147.537 39.3777 147.973 39.3777C148.392 39.3777 148.752 39.4872 149.056 39.7048C149.359 39.9228 149.567 40.2176 149.679 40.5891C149.762 40.842 149.803 41.2047 149.803 41.6755C149.803 42.1528 149.762 42.5154 149.679 42.7625C149.567 43.146 149.359 43.4464 149.056 43.6638C148.752 43.8817 148.389 43.991 147.964 43.991C147.54 43.991 147.175 43.882 146.869 43.6638ZM148.689 43.209C148.889 43.053 149.025 42.8423 149.096 42.5774C149.148 42.3651 149.175 42.0678 149.175 41.6843C149.175 41.2957 149.151 40.9985 149.104 40.7918C149.033 40.5269 148.897 40.3162 148.693 40.1602C148.49 40.0042 148.244 39.926 147.955 39.926C147.666 39.926 147.422 40.0042 147.222 40.1602C147.021 40.3162 146.886 40.5269 146.815 40.7918C146.768 40.9982 146.745 41.2957 146.745 41.6843C146.745 42.0734 146.768 42.3707 146.815 42.5774C146.88 42.8423 147.014 43.053 147.217 43.209C147.421 43.365 147.67 43.4432 147.964 43.4432C148.247 43.4432 148.489 43.365 148.689 43.209Z" fill="#CCC1B4"/>
<path d="M156.571 39.7847C156.827 40.0496 156.955 40.4123 156.955 40.8716V43.8318C156.955 43.8908 156.926 43.9205 156.867 43.9205H156.425C156.366 43.9205 156.337 43.8908 156.337 43.8318V40.9953C156.337 40.6714 156.244 40.4136 156.058 40.2219C155.873 40.0309 155.63 39.935 155.329 39.935C155.017 39.935 154.765 40.0296 154.574 40.2179C154.382 40.4067 154.287 40.6596 154.287 40.9779V43.8323C154.287 43.8914 154.257 43.921 154.198 43.921H153.748C153.688 43.921 153.659 43.8914 153.659 43.8323V40.9958C153.659 40.6719 153.568 40.4142 153.385 40.2224C153.202 40.0315 152.958 39.9356 152.652 39.9356C152.34 39.9356 152.09 40.0301 151.905 40.2184C151.719 40.4072 151.627 40.6601 151.627 40.9785V43.8329C151.627 43.8919 151.597 43.9215 151.538 43.9215H151.088C151.029 43.9215 150.999 43.8919 150.999 43.8329V39.5379C150.999 39.4794 151.029 39.4498 151.088 39.4498H151.538C151.597 39.4498 151.627 39.4794 151.627 39.5379V39.8915C151.627 39.9035 151.631 39.9107 151.64 39.9134C151.649 39.9166 151.659 39.9123 151.671 39.9003C151.8 39.7297 151.967 39.6015 152.17 39.516C152.373 39.4306 152.599 39.3878 152.846 39.3878C153.152 39.3878 153.414 39.4498 153.632 39.5734C153.85 39.6971 154.015 39.8771 154.128 40.1129C154.139 40.142 154.154 40.142 154.172 40.1129C154.301 39.8715 154.484 39.6899 154.72 39.5694C154.955 39.4485 155.223 39.3878 155.524 39.3878C155.965 39.3868 156.315 39.5198 156.571 39.7847Z" fill="#CCC1B4"/>
<path d="M158.175 38.8348C158.163 38.814 158.166 38.7889 158.184 38.7598L158.714 37.7965C158.731 37.7553 158.767 37.7345 158.82 37.7345H159.217C159.253 37.7345 159.275 37.7449 159.284 37.7657C159.292 37.786 159.288 37.8111 159.27 37.8408L158.669 38.8036C158.64 38.8447 158.604 38.8655 158.563 38.8655H158.245C158.21 38.8655 158.186 38.8551 158.175 38.8348ZM158.219 43.8319V39.5369C158.219 39.4784 158.248 39.4488 158.307 39.4488H158.758C158.817 39.4488 158.847 39.4784 158.847 39.5369V43.8319C158.847 43.8909 158.817 43.9205 158.758 43.9205H158.307C158.248 43.9205 158.219 43.8909 158.219 43.8319Z" fill="#CCC1B4"/>
<path d="M163.153 39.8023C163.433 40.0792 163.573 40.4502 163.573 40.9154V43.8318C163.573 43.8908 163.543 43.9204 163.484 43.9204H163.033C162.974 43.9204 162.945 43.8908 162.945 43.8318V41.0396C162.945 40.7157 162.847 40.4502 162.649 40.244C162.452 40.0378 162.197 39.9348 161.885 39.9348C161.561 39.9348 161.299 40.0349 161.099 40.2352C160.898 40.4355 160.798 40.6978 160.798 41.0217V43.8315C160.798 43.8905 160.768 43.9202 160.71 43.9202H160.259C160.2 43.9202 160.171 43.8905 160.171 43.8315V39.5366C160.171 39.4781 160.2 39.4484 160.259 39.4484H160.71C160.768 39.4484 160.798 39.4781 160.798 39.5366V39.9169C160.798 39.9289 160.802 39.9377 160.811 39.9436C160.82 39.9494 160.828 39.9468 160.833 39.9348C161.093 39.5697 161.49 39.3865 162.026 39.3865C162.497 39.3867 162.873 39.5253 163.153 39.8023Z" fill="#CCC1B4"/>
<path d="M164.906 38.4943C164.812 38.4003 164.765 38.2825 164.765 38.1413C164.765 37.9936 164.812 37.8747 164.906 37.7829C165 37.6915 165.118 37.6461 165.259 37.6461C165.401 37.6461 165.519 37.6915 165.613 37.7829C165.707 37.8747 165.754 37.9936 165.754 38.1413C165.754 38.2825 165.707 38.4006 165.613 38.4943C165.519 38.5889 165.401 38.6356 165.259 38.6356C165.118 38.6356 165 38.5886 164.906 38.4943ZM164.924 43.8231V39.5281C164.924 39.4696 164.953 39.44 165.012 39.44H165.463C165.521 39.44 165.551 39.4696 165.551 39.5281V43.8231C165.551 43.8821 165.521 43.9117 165.463 43.9117H165.012C164.953 43.9117 164.924 43.8821 164.924 43.8231Z" fill="#CCC1B4"/>
<path d="M167.556 43.6638C167.25 43.4464 167.038 43.146 166.92 42.7625C166.837 42.4917 166.796 42.1293 166.796 41.6755C166.796 41.2223 166.837 40.8628 166.92 40.5974C167.031 40.2208 167.241 39.923 167.547 39.7048C167.853 39.4874 168.224 39.3777 168.661 39.3777C169.079 39.3777 169.44 39.4872 169.743 39.7048C170.047 39.9228 170.254 40.2176 170.366 40.5891C170.449 40.842 170.49 41.2047 170.49 41.6755C170.49 42.1528 170.449 42.5154 170.366 42.7625C170.254 43.146 170.047 43.4464 169.743 43.6638C169.44 43.8817 169.076 43.991 168.652 43.991C168.228 43.991 167.862 43.882 167.556 43.6638ZM169.376 43.209C169.577 43.053 169.712 42.8423 169.783 42.5774C169.836 42.3651 169.862 42.0678 169.862 41.6843C169.862 41.2957 169.839 40.9985 169.792 40.7918C169.721 40.5269 169.584 40.3162 169.381 40.1602C169.177 40.0042 168.931 39.926 168.643 39.926C168.354 39.926 168.109 40.0042 167.909 40.1602C167.709 40.3162 167.573 40.5269 167.503 40.7918C167.455 40.9982 167.432 41.2957 167.432 41.6843C167.432 42.0734 167.455 42.3707 167.503 42.5774C167.567 42.8423 167.702 43.053 167.905 43.209C168.108 43.365 168.357 43.4432 168.651 43.4432C168.935 43.4432 169.176 43.365 169.376 43.209Z" fill="#CCC1B4"/>
<path d="M172.277 43.8057C172.02 43.6994 171.823 43.5578 171.685 43.381C171.546 43.2042 171.477 43.0071 171.477 42.7889V42.6832C171.477 42.6242 171.506 42.5945 171.565 42.5945H171.99C172.049 42.5945 172.078 42.6242 172.078 42.6832V42.7537C172.078 42.9484 172.18 43.1177 172.383 43.2622C172.586 43.4061 172.841 43.4788 173.148 43.4788C173.454 43.4788 173.701 43.4093 173.89 43.2707C174.078 43.1324 174.173 42.9572 174.173 42.7449C174.173 42.5977 174.124 42.4773 174.027 42.383C173.929 42.2887 173.815 42.215 173.682 42.1619C173.549 42.1093 173.345 42.0414 173.068 41.9589C172.738 41.8644 172.467 41.7701 172.255 41.6755C172.043 41.5815 171.865 41.4501 171.72 41.2827C171.576 41.1147 171.503 40.9008 171.503 40.6417C171.503 40.2652 171.651 39.9642 171.945 39.7404C172.24 39.5166 172.629 39.4044 173.112 39.4044C173.436 39.4044 173.723 39.4576 173.974 39.5636C174.224 39.6699 174.417 39.8154 174.552 40.0013C174.688 40.1872 174.756 40.3947 174.756 40.6241V40.6508C174.756 40.7098 174.726 40.7395 174.667 40.7395H174.252C174.193 40.7395 174.163 40.7098 174.163 40.6508V40.6241C174.163 40.4238 174.068 40.2564 173.876 40.1207C173.685 39.985 173.427 39.9172 173.103 39.9172C172.802 39.9172 172.561 39.9778 172.378 40.0983C172.195 40.2192 172.104 40.3856 172.104 40.5974C172.104 40.7982 172.193 40.951 172.37 41.057C172.546 41.1633 172.82 41.2693 173.191 41.3751C173.533 41.4758 173.81 41.5698 174.022 41.6584C174.234 41.7466 174.417 41.875 174.57 42.0428C174.723 42.2102 174.8 42.4297 174.8 42.7011C174.8 43.084 174.649 43.3901 174.349 43.6201C174.048 43.8495 173.651 43.9643 173.156 43.9643C172.826 43.9643 172.533 43.9117 172.277 43.8057Z" fill="#CCC1B4"/>
<path d="M181.251 41.6844C181.251 42.1681 181.21 42.5419 181.127 42.8069C181.015 43.172 180.821 43.4609 180.544 43.6727C180.267 43.885 179.922 43.9908 179.51 43.9908C179.274 43.9908 179.059 43.9438 178.865 43.8495C178.67 43.7555 178.508 43.6201 178.379 43.4433C178.373 43.4313 178.364 43.427 178.352 43.4297C178.34 43.4329 178.335 43.4401 178.335 43.4521V43.8319C178.335 43.8909 178.305 43.9206 178.246 43.9206H177.796C177.737 43.9206 177.707 43.8909 177.707 43.8319V37.8229C177.707 37.7639 177.737 37.7343 177.796 37.7343H178.246C178.305 37.7343 178.335 37.7639 178.335 37.8229V39.9084C178.335 39.9204 178.339 39.9276 178.348 39.9303C178.357 39.9335 178.367 39.9293 178.379 39.9172C178.508 39.7461 178.671 39.6136 178.865 39.5198C179.059 39.4253 179.274 39.378 179.51 39.378C179.928 39.378 180.279 39.4859 180.562 39.7009C180.845 39.9159 181.039 40.2121 181.145 40.5892C181.216 40.8541 181.251 41.2192 181.251 41.6844ZM180.588 42.3344C180.612 42.1779 180.624 41.9616 180.624 41.6844C180.624 41.396 180.607 41.1706 180.575 41.0085C180.543 40.8469 180.491 40.7008 180.42 40.5713C180.344 40.3766 180.22 40.2206 180.049 40.1028C179.878 39.9851 179.675 39.926 179.439 39.926C179.215 39.926 179.023 39.9867 178.861 40.1071C178.699 40.2281 178.582 40.3889 178.511 40.5892C178.452 40.7128 178.41 40.8541 178.383 41.0133C178.357 41.1724 178.344 41.3962 178.344 41.6847C178.344 41.968 178.357 42.187 178.383 42.3435C178.41 42.4995 178.45 42.6392 178.503 42.7628C178.579 42.9693 178.697 43.1343 178.856 43.258C179.015 43.3816 179.212 43.4436 179.448 43.4436C179.696 43.4436 179.909 43.3816 180.089 43.258C180.268 43.1343 180.394 42.9663 180.464 42.754C180.523 42.6301 180.565 42.4904 180.588 42.3344Z" fill="#CCC1B4"/>
<path d="M184.771 39.5198C184.818 39.5433 184.836 39.5812 184.824 39.6346L184.727 40.0675C184.709 40.1265 184.671 40.1442 184.612 40.1207C184.512 40.0795 184.397 40.0587 184.267 40.0587L184.152 40.0675C183.846 40.0795 183.592 40.1928 183.392 40.4075C183.192 40.623 183.092 40.8951 183.092 41.225V43.8321C183.092 43.8911 183.062 43.9207 183.003 43.9207H182.553C182.494 43.9207 182.464 43.8911 182.464 43.8321V39.5371C182.464 39.4786 182.494 39.449 182.553 39.449H183.003C183.062 39.449 183.092 39.4786 183.092 39.5371V40.0766C183.092 40.0942 183.096 40.1046 183.105 40.1073C183.114 40.1105 183.121 40.1062 183.127 40.0942C183.251 39.8763 183.409 39.7067 183.6 39.5863C183.792 39.4653 184.014 39.4047 184.267 39.4047C184.462 39.4044 184.63 39.4428 184.771 39.5198Z" fill="#CCC1B4"/>
<path d="M188.501 39.7847C188.79 40.0555 188.934 40.4152 188.934 40.8628V43.8318C188.934 43.8908 188.905 43.9205 188.846 43.9205H188.395C188.336 43.9205 188.307 43.8908 188.307 43.8318V43.4699C188.307 43.4579 188.302 43.4491 188.294 43.4432C188.285 43.4373 188.275 43.44 188.263 43.452C188.115 43.6288 187.924 43.7629 187.688 43.8542C187.453 43.9456 187.191 43.991 186.902 43.991C186.484 43.991 186.133 43.8852 185.85 43.6729C185.567 43.4611 185.426 43.1372 185.426 42.701C185.426 42.2593 185.587 41.9097 185.908 41.6536C186.229 41.3975 186.675 41.2693 187.247 41.2693H188.272C188.295 41.2693 188.307 41.2578 188.307 41.2338V40.8983C188.307 40.5974 188.223 40.3605 188.055 40.1869C187.887 40.0133 187.627 39.926 187.273 39.926C186.99 39.926 186.761 39.9802 186.584 40.0891C186.407 40.1981 186.298 40.3501 186.257 40.5445C186.239 40.6035 186.204 40.63 186.151 40.6238L185.674 40.5624C185.609 40.5504 185.582 40.5269 185.594 40.4913C185.641 40.1618 185.818 39.8937 186.124 39.687C186.43 39.481 186.814 39.3777 187.273 39.3777C187.803 39.3777 188.213 39.5134 188.501 39.7847ZM187.927 43.1914C188.18 43.0178 188.307 42.7836 188.307 42.4887V41.7997C188.307 41.7762 188.295 41.7642 188.271 41.7642H187.344C186.955 41.7642 186.642 41.8435 186.407 42.0027C186.171 42.1618 186.053 42.383 186.053 42.6655C186.053 42.9248 186.143 43.1203 186.323 43.2533C186.503 43.3858 186.737 43.452 187.025 43.452C187.373 43.452 187.673 43.365 187.927 43.1914Z" fill="#CCC1B4"/>
<path d="M190.818 43.8057C190.562 43.6994 190.364 43.5578 190.226 43.381C190.087 43.2042 190.019 43.0071 190.019 42.7889V42.6832C190.019 42.6242 190.048 42.5945 190.107 42.5945H190.531C190.59 42.5945 190.619 42.6242 190.619 42.6832V42.7537C190.619 42.9484 190.721 43.1177 190.924 43.2622C191.128 43.4061 191.382 43.4788 191.689 43.4788C191.995 43.4788 192.242 43.4093 192.431 43.2707C192.619 43.1324 192.714 42.9572 192.714 42.7449C192.714 42.5977 192.665 42.4773 192.568 42.383C192.471 42.2887 192.356 42.215 192.223 42.1619C192.091 42.1093 191.886 42.0414 191.609 41.9589C191.279 41.8644 191.008 41.7701 190.796 41.6755C190.584 41.5815 190.406 41.4501 190.261 41.2827C190.117 41.1147 190.045 40.9008 190.045 40.6417C190.045 40.2652 190.192 39.9642 190.486 39.7404C190.781 39.5166 191.17 39.4044 191.653 39.4044C191.977 39.4044 192.264 39.4576 192.515 39.5636C192.765 39.6699 192.958 39.8154 193.094 40.0013C193.229 40.1872 193.297 40.3947 193.297 40.6241V40.6508C193.297 40.7098 193.267 40.7395 193.209 40.7395H192.793C192.734 40.7395 192.705 40.7098 192.705 40.6508V40.6241C192.705 40.4238 192.609 40.2564 192.418 40.1207C192.226 39.985 191.968 39.9172 191.644 39.9172C191.344 39.9172 191.102 39.9778 190.92 40.0983C190.737 40.2192 190.646 40.3856 190.646 40.5974C190.646 40.7982 190.734 40.951 190.911 41.057C191.088 41.1633 191.362 41.2693 191.733 41.3751C192.074 41.4758 192.351 41.5698 192.563 41.6584C192.775 41.7466 192.958 41.875 193.111 42.0428C193.264 42.2102 193.341 42.4297 193.341 42.7011C193.341 43.084 193.19 43.3901 192.89 43.6201C192.59 43.8495 192.192 43.9643 191.697 43.9643C191.367 43.9643 191.075 43.9117 190.818 43.8057Z" fill="#CCC1B4"/>
<path d="M194.464 38.4943C194.37 38.4003 194.323 38.2825 194.323 38.1413C194.323 37.9936 194.37 37.8747 194.464 37.7829C194.558 37.6915 194.676 37.6461 194.817 37.6461C194.959 37.6461 195.077 37.6915 195.171 37.7829C195.265 37.8747 195.312 37.9936 195.312 38.1413C195.312 38.2825 195.265 38.4006 195.171 38.4943C195.077 38.5889 194.959 38.6356 194.817 38.6356C194.676 38.6356 194.558 38.5886 194.464 38.4943ZM194.482 43.8231V39.5281C194.482 39.4696 194.511 39.44 194.57 39.44H195.021C195.079 39.44 195.109 39.4696 195.109 39.5281V43.8231C195.109 43.8821 195.079 43.9117 195.021 43.9117H194.57C194.511 43.9117 194.482 43.8821 194.482 43.8231Z" fill="#CCC1B4"/>
<path d="M196.526 43.8319V37.8229C196.526 37.7639 196.555 37.7343 196.614 37.7343H197.065C197.124 37.7343 197.153 37.7639 197.153 37.8229V43.8319C197.153 43.8909 197.124 43.9206 197.065 43.9206H196.614C196.556 43.9206 196.526 43.8909 196.526 43.8319Z" fill="#CCC1B4"/>
<path d="M201.97 41.5519V41.8348C201.97 41.8938 201.941 41.9234 201.882 41.9234H199.028C199.004 41.9234 198.992 41.9354 198.992 41.9589C199.004 42.2829 199.021 42.492 199.045 42.586C199.11 42.8515 199.248 43.0606 199.46 43.2136C199.673 43.3669 199.944 43.4436 200.274 43.4436C200.521 43.4436 200.739 43.3877 200.927 43.2756C201.116 43.1639 201.263 43.0048 201.369 42.7983C201.405 42.7452 201.446 42.7337 201.493 42.7628L201.838 42.9663C201.885 42.996 201.897 43.0373 201.873 43.09C201.726 43.3728 201.505 43.5955 201.21 43.7571C200.916 43.9192 200.577 44.0001 200.194 44.0001C199.776 43.9945 199.425 43.8944 199.142 43.6997C198.86 43.505 198.657 43.2344 198.533 42.887C198.427 42.6036 198.374 42.1974 198.374 41.667C198.374 41.4197 198.378 41.2178 198.387 41.0619C198.396 40.9059 198.418 40.7657 198.453 40.642C198.553 40.2591 198.755 39.953 199.059 39.7231C199.362 39.4937 199.729 39.3783 200.159 39.3783C200.695 39.3783 201.107 39.514 201.396 39.785C201.685 40.0558 201.865 40.4391 201.935 40.9337C201.958 41.0987 201.97 41.3046 201.97 41.5519ZM199.439 40.1514C199.247 40.3018 199.122 40.5034 199.063 40.7566C199.028 40.8808 199.004 41.0811 198.992 41.358C198.992 41.3815 199.004 41.393 199.028 41.393H201.316C201.34 41.393 201.352 41.3815 201.352 41.358C201.34 41.0926 201.322 40.9043 201.299 40.7921C201.234 40.5272 201.103 40.3165 200.905 40.1605C200.708 40.0046 200.459 39.9263 200.159 39.9263C199.87 39.926 199.63 40.0011 199.439 40.1514Z" fill="#CCC1B4"/>
<path d="M203.149 38.4943C203.055 38.4003 203.008 38.2825 203.008 38.1413C203.008 37.9936 203.055 37.8747 203.149 37.7829C203.243 37.6915 203.361 37.6461 203.502 37.6461C203.644 37.6461 203.762 37.6915 203.856 37.7829C203.95 37.8747 203.997 37.9936 203.997 38.1413C203.997 38.2825 203.95 38.4006 203.856 38.4943C203.761 38.5889 203.644 38.6356 203.502 38.6356C203.361 38.6356 203.243 38.5886 203.149 38.4943ZM203.167 43.8231V39.5281C203.167 39.4696 203.196 39.44 203.255 39.44H203.706C203.765 39.44 203.794 39.4696 203.794 39.5281V43.8231C203.794 43.8821 203.765 43.9117 203.706 43.9117H203.255C203.196 43.9117 203.167 43.8821 203.167 43.8231Z" fill="#CCC1B4"/>
<path d="M207.517 39.5198C207.564 39.5433 207.582 39.5812 207.57 39.6346L207.473 40.0675C207.455 40.1265 207.417 40.1442 207.358 40.1207C207.258 40.0795 207.143 40.0587 207.013 40.0587L206.898 40.0675C206.592 40.0795 206.338 40.1928 206.138 40.4075C205.938 40.623 205.838 40.8951 205.838 41.225V43.8321C205.838 43.8911 205.808 43.9207 205.75 43.9207H205.299C205.24 43.9207 205.21 43.8911 205.21 43.8321V39.5371C205.21 39.4786 205.24 39.449 205.299 39.449H205.75C205.808 39.449 205.838 39.4786 205.838 39.5371V40.0766C205.838 40.0942 205.842 40.1046 205.851 40.1073C205.86 40.1105 205.867 40.1062 205.873 40.0942C205.997 39.8763 206.155 39.7067 206.346 39.5863C206.538 39.4653 206.76 39.4047 207.013 39.4047C207.208 39.4044 207.375 39.4428 207.517 39.5198Z" fill="#CCC1B4"/>
<path d="M208.986 43.6638C208.68 43.4464 208.468 43.146 208.35 42.7625C208.267 42.4917 208.226 42.1293 208.226 41.6755C208.226 41.2223 208.267 40.8628 208.35 40.5974C208.462 40.2208 208.671 39.923 208.977 39.7048C209.284 39.4874 209.655 39.3777 210.091 39.3777C210.509 39.3777 210.87 39.4872 211.174 39.7048C211.477 39.9228 211.685 40.2176 211.797 40.5891C211.879 40.842 211.92 41.2047 211.92 41.6755C211.92 42.1528 211.879 42.5154 211.797 42.7625C211.685 43.146 211.477 43.4464 211.174 43.6638C210.87 43.8817 210.506 43.991 210.082 43.991C209.658 43.991 209.292 43.882 208.986 43.6638ZM210.807 43.209C211.007 43.053 211.143 42.8423 211.213 42.5774C211.266 42.3651 211.293 42.0678 211.293 41.6843C211.293 41.2957 211.269 40.9985 211.222 40.7918C211.151 40.5269 211.014 40.3162 210.811 40.1602C210.608 40.0042 210.361 39.926 210.073 39.926C209.784 39.926 209.54 40.0042 209.339 40.1602C209.139 40.3162 209.004 40.5269 208.933 40.7918C208.886 40.9982 208.862 41.2957 208.862 41.6843C208.862 42.0734 208.886 42.3707 208.933 42.5774C208.998 42.8423 209.132 43.053 209.335 43.209C209.539 43.365 209.787 43.4432 210.082 43.4432C210.365 43.4432 210.606 43.365 210.807 43.209Z" fill="#CCC1B4"/>
<path d="M213.707 43.8057C213.451 43.6994 213.253 43.5578 213.115 43.381C212.976 43.2042 212.907 43.0071 212.907 42.7889V42.6832C212.907 42.6242 212.936 42.5945 212.995 42.5945H213.42C213.479 42.5945 213.508 42.6242 213.508 42.6832V42.7537C213.508 42.9484 213.61 43.1177 213.813 43.2622C214.016 43.4061 214.271 43.4788 214.578 43.4788C214.884 43.4788 215.131 43.4093 215.32 43.2707C215.508 43.1324 215.603 42.9572 215.603 42.7449C215.603 42.5977 215.554 42.4773 215.457 42.383C215.36 42.2887 215.245 42.215 215.112 42.1619C214.98 42.1093 214.775 42.0414 214.498 41.9589C214.168 41.8644 213.897 41.7701 213.685 41.6755C213.473 41.5815 213.295 41.4501 213.15 41.2827C213.006 41.1147 212.934 40.9008 212.934 40.6417C212.934 40.2652 213.081 39.9642 213.375 39.7404C213.67 39.5166 214.059 39.4044 214.542 39.4044C214.866 39.4044 215.153 39.4576 215.404 39.5636C215.654 39.6699 215.847 39.8154 215.982 40.0013C216.118 40.1872 216.186 40.3947 216.186 40.6241V40.6508C216.186 40.7098 216.156 40.7395 216.097 40.7395H215.682C215.623 40.7395 215.594 40.7098 215.594 40.6508V40.6241C215.594 40.4238 215.498 40.2564 215.306 40.1207C215.115 39.985 214.857 39.9172 214.533 39.9172C214.233 39.9172 213.991 39.9778 213.808 40.0983C213.625 40.2192 213.534 40.3856 213.534 40.5974C213.534 40.7982 213.623 40.951 213.8 41.057C213.976 41.1633 214.25 41.2693 214.621 41.3751C214.963 41.4758 215.24 41.5698 215.452 41.6584C215.664 41.7466 215.847 41.875 216 42.0428C216.153 42.2102 216.23 42.4297 216.23 42.7011C216.23 43.084 216.079 43.3901 215.779 43.6201C215.478 43.8495 215.081 43.9643 214.586 43.9643C214.256 43.9643 213.963 43.9117 213.707 43.8057Z" fill="#CCC1B4"/>
</svg>
